# xmcd
#
# Track frame offsets: 
#        150
#        2049
#        12573
#        23137
#        33042
#        42936
#        50658
#        58431
#        71844
#        85287
#        101675
#        118252
#        127635
#        137007
#        148800
#        160764
#        172746
#        184974
#        196452
#        207972
#        217419
#        226791
#        234645
#        242499
#        256020
#
# Disc length: 3600 seconds
#
# Revision: 0
# Processed by: cddbd v1.5.2PL0 Copyright (c) Steve Scherf et al.
# Submitted via: ExactAudioCopy v0.99pb5
#
DISCID=650e0e19
DTITLE=Nobuya Sugawa - New Essential Repertoire
DYEAR=2007
DGENRE=Jazz
TTITLE0=Tuning Note F#
TTITLE1=Crossover Saxtune
TTITLE2=Crossover Saxtune
TTITLE3=Arhytmic Jazz
TTITLE4=Arhytmic Jazz
TTITLE5=Almost a Rag
TTITLE6=Almost a Rag (Accompaniment)
TTITLE7=Une marche pour Nobuya
TTITLE8=Une marche pour Nobuya (Accompaniment)
TTITLE9=Jazz from 5 to 8
TTITLE10=Jazz from 5 to 8 (Accompaniment)
TTITLE11=Bouncing Little Elephant
TTITLE12=Bouncing Little Elephant (Accompaniment)
TTITLE13=Valee d'Aouste
TTITLE14=Valee d'Aouste (Accompaniment)
TTITLE15=Ca Quijano
TTITLE16=Ca Quijano (Accompaniment)
TTITLE17=Princely Ceremonial
TTITLE18=Princely Ceremonial (Accompaniment)
TTITLE19=Week-end
TTITLE20=Week-end (Accompaniment)
TTITLE21=Cushty
TTITLE22=Cushty (Accompaniment)
TTITLE23=The Only Answer
TTITLE24=The Only Answer (Accompaniment)
EXTD=
EXTT0=
EXTT1=
EXTT2=
EXTT3=
EXTT4=
EXTT5=
EXTT6=
EXTT7=
EXTT8=
EXTT9=
EXTT10=
EXTT11=
EXTT12=
EXTT13=
EXTT14=
EXTT15=
EXTT16=
EXTT17=
EXTT18=
EXTT19=
EXTT20=
EXTT21=
EXTT22=
EXTT23=
EXTT24=
PLAYORDER=
